# xmcd CD database file
#
# Track frame offsets:
#	150
#	24350
#	43258
#	70767
#	88903
#	107657
#	128392
#	147196
#	171747
#	197753
#
# Disc length: 2999 seconds
#
# Revision: 0
# Processed by: cddbd v1.5.2PL0 Copyright (c) Steve Scherf et al.
# Submitted via: CDex 1.51
#
DISCID=8b0bb50a
DTITLE=Patrick Butler - Mesmerizer
DYEAR=2007
DGENRE=Jazz
TTITLE0=Hanasmuss
TTITLE1=Mesmerizer
TTITLE2=Fialoa
TTITLE3=Descender
TTITLE4=Slimy Snail
TTITLE5=Submariner
TTITLE6=Lurker at the Threshold
TTITLE7=Murky Depths, Lofty Heights
TTITLE8=Ezflo
TTITLE9=Perth Amboy Cakewalk
EXTD=YEAR: 2007
EXTT0=
EXTT1=
EXTT2=
EXTT3=
EXTT4=
EXTT5=
EXTT6=
EXTT7=
EXTT8=
EXTT9=
PLAYORDER=
